<svg width="260" height="49" viewBox="0 0 260 49" fill="none" xmlns="http://www.w3.org/2000/svg">
<g clip-path="url(#clip0_1679_2880)">
<path d="M82.8213 6.15063H92.1457V18.0846H105.296V6.15063H114.62V40.3098H105.296V25.3252H92.1457V40.3098H82.8213V6.15063Z" fill="black" fill-opacity="0.9"/>
<path d="M119.402 6.15063H144.77V13.395H128.727V18.0846H143.471V25.329H128.727V33.073H144.699V40.3174H119.406V6.15063H119.402Z" fill="black" fill-opacity="0.9"/>
<path d="M180.245 40.3136H172.42L159.247 21.8885H159.003V40.3136H149.678V6.15063H157.653L170.63 24.5304H170.925V6.15063H180.249V40.3098L180.245 40.3136Z" fill="black" fill-opacity="0.9"/>
<path d="M185.051 6.15063H210.418V13.395H194.375V18.0846H209.119V25.329H194.375V33.073H210.347V40.3174H185.055V6.15063H185.051Z" fill="black" fill-opacity="0.9"/>
<path d="M224.651 40.3136H215.327V6.15063H224.651V40.3098V40.3136Z" fill="black" fill-opacity="0.9"/>
<path d="M260 40.3136H252.175L239.002 21.8885H238.757V40.3136H229.433V6.15063H237.407L250.384 24.5304H250.68V6.15063H260.004V40.3098L260 40.3136Z" fill="black" fill-opacity="0.9"/>
<path fill-rule="evenodd" clip-rule="evenodd" d="M54.8374 48.2812C50.0983 48.594 43.9469 49 36.1324 49C28.3179 49 22.1665 48.594 17.4274 48.2812C16.9295 48.2483 16.4472 48.2165 15.9801 48.1862C11.4931 47.8948 9.54872 47.0697 6.67938 45.5103C2.44819 43.209 0 38.4627 0 33.4363C0 26.0458 5.30833 21.9094 8.29994 19.5782C8.78932 19.1969 9.21671 18.8638 9.54872 18.5728C11.1846 17.1406 12.7089 15.1826 14.3513 13.0728C18.9725 7.13673 24.5284 0 36.1324 0C46.7311 0 53.5264 6.15127 58.7392 11.836L47.2516 18.4744L24.6157 5.39362L42.8433 21.6386L24.6157 37.8837L47.2516 24.8029L69.8875 37.8837L51.66 21.6386L60.4836 13.7747C60.6251 13.934 60.7656 14.0922 60.9049 14.2493C62.5357 16.0872 64.021 17.7611 65.4477 19.0118C65.7222 19.2516 66.0459 19.5141 66.4038 19.8044C69.1304 22.0157 73.8393 25.8346 73.8393 33.4363C73.8393 38.4627 71.3911 43.209 67.1599 45.5103C64.2905 47.0697 60.7718 47.8948 56.2847 48.1862C55.8177 48.2165 55.3354 48.2483 54.8374 48.2812Z" fill="#F68D1F"/>
</g>
<defs>
<clipPath id="clip0_1679_2880">
<rect width="260" height="49" fill="white"/>
</clipPath>
</defs>
</svg>
